<mxfile host="app.diagrams.net" agent="Mozilla/5.0 (Macintosh; Intel Mac OS X 10_15_7) AppleWebKit/537.36 (KHTML, like Gecko) Chrome/132.0.0.0 YaBrowser/25.2.0.0 Safari/537.36" version="26.1.0">
  <diagram name="Страница — 1" id="mDo3bz7jUIlqsJN8--HH">
    <mxGraphModel dx="2139" dy="863" grid="1" gridSize="10" guides="1" tooltips="1" connect="1" arrows="1" fold="1" page="1" pageScale="1" pageWidth="827" pageHeight="1169" math="0" shadow="0">
      <root>
        <mxCell id="0" />
        <mxCell id="1" parent="0" />
        <mxCell id="OA2A4LIZj-C3sTAUX2nf-1" value="BotConfig" style="swimlane;fontStyle=1;childLayout=stackLayout;horizontal=1;startSize=26;horizontalStack=0;resizeParent=1;resizeParentMax=0;resizeLast=0;collapsible=1;marginBottom=0;" vertex="1" parent="1">
          <mxGeometry x="50" y="630" width="250" height="52" as="geometry" />
        </mxCell>
        <mxCell id="OA2A4LIZj-C3sTAUX2nf-2" value="+telegramBot(BotProperties): TelegramBot" style="text;strokeColor=none;fillColor=none;align=left;verticalAlign=top;spacingLeft=4;spacingRight=4;overflow=hidden;rotatable=0;points=[[0,0.5],[1,0.5]];portConstraint=eastwest;" vertex="1" parent="OA2A4LIZj-C3sTAUX2nf-1">
          <mxGeometry y="26" width="250" height="26" as="geometry" />
        </mxCell>
        <mxCell id="OA2A4LIZj-C3sTAUX2nf-3" value="DatabaseConfig" style="swimlane;fontStyle=1;childLayout=stackLayout;horizontal=1;startSize=26;horizontalStack=0;resizeParent=1;resizeParentMax=0;resizeLast=0;collapsible=1;marginBottom=0;" vertex="1" parent="1">
          <mxGeometry x="870" y="630" width="350" height="78" as="geometry" />
        </mxCell>
        <mxCell id="OA2A4LIZj-C3sTAUX2nf-4" value="+dataSource(DatabaseProperties): DataSource" style="text;strokeColor=none;fillColor=none;align=left;verticalAlign=top;spacingLeft=4;spacingRight=4;overflow=hidden;rotatable=0;points=[[0,0.5],[1,0.5]];portConstraint=eastwest;" vertex="1" parent="OA2A4LIZj-C3sTAUX2nf-3">
          <mxGeometry y="26" width="350" height="26" as="geometry" />
        </mxCell>
        <mxCell id="OA2A4LIZj-C3sTAUX2nf-5" value="+jdbcTemplate(DataSource): NamedParameterJdbcTemplate" style="text;strokeColor=none;fillColor=none;align=left;verticalAlign=top;spacingLeft=4;spacingRight=4;overflow=hidden;rotatable=0;points=[[0,0.5],[1,0.5]];portConstraint=eastwest;" vertex="1" parent="OA2A4LIZj-C3sTAUX2nf-3">
          <mxGeometry y="52" width="350" height="26" as="geometry" />
        </mxCell>
        <mxCell id="OA2A4LIZj-C3sTAUX2nf-6" value="BotService" style="swimlane;fontStyle=1;childLayout=stackLayout;horizontal=1;startSize=26;horizontalStack=0;resizeParent=1;resizeParentMax=0;resizeLast=0;collapsible=1;marginBottom=0;" vertex="1" parent="1">
          <mxGeometry x="430" y="630" width="200" height="78" as="geometry" />
        </mxCell>
        <mxCell id="OA2A4LIZj-C3sTAUX2nf-7" value="-userRepository: UserRepository" style="text;strokeColor=none;fillColor=none;align=left;verticalAlign=top;spacingLeft=4;spacingRight=4;overflow=hidden;rotatable=0;points=[[0,0.5],[1,0.5]];portConstraint=eastwest;" vertex="1" parent="OA2A4LIZj-C3sTAUX2nf-6">
          <mxGeometry y="26" width="200" height="26" as="geometry" />
        </mxCell>
        <mxCell id="OA2A4LIZj-C3sTAUX2nf-8" value="+processMessage(String): void" style="text;strokeColor=none;fillColor=none;align=left;verticalAlign=top;spacingLeft=4;spacingRight=4;overflow=hidden;rotatable=0;points=[[0,0.5],[1,0.5]];portConstraint=eastwest;" vertex="1" parent="OA2A4LIZj-C3sTAUX2nf-6">
          <mxGeometry y="52" width="200" height="26" as="geometry" />
        </mxCell>
        <mxCell id="OA2A4LIZj-C3sTAUX2nf-34" style="edgeStyle=orthogonalEdgeStyle;rounded=0;orthogonalLoop=1;jettySize=auto;html=1;exitX=0.25;exitY=0;exitDx=0;exitDy=0;entryX=0;entryY=0.25;entryDx=0;entryDy=0;" edge="1" parent="1" source="OA2A4LIZj-C3sTAUX2nf-9" target="OA2A4LIZj-C3sTAUX2nf-1">
          <mxGeometry relative="1" as="geometry" />
        </mxCell>
        <mxCell id="OA2A4LIZj-C3sTAUX2nf-9" value="BotController" style="swimlane;fontStyle=1;childLayout=stackLayout;horizontal=1;startSize=26;horizontalStack=0;resizeParent=1;resizeParentMax=0;resizeLast=0;collapsible=1;marginBottom=0;" vertex="1" parent="1">
          <mxGeometry x="10" y="800" width="350" height="78" as="geometry" />
        </mxCell>
        <mxCell id="OA2A4LIZj-C3sTAUX2nf-10" value="-botService: BotService" style="text;strokeColor=none;fillColor=none;align=left;verticalAlign=top;spacingLeft=4;spacingRight=4;overflow=hidden;rotatable=0;points=[[0,0.5],[1,0.5]];portConstraint=eastwest;" vertex="1" parent="OA2A4LIZj-C3sTAUX2nf-9">
          <mxGeometry y="26" width="350" height="26" as="geometry" />
        </mxCell>
        <mxCell id="OA2A4LIZj-C3sTAUX2nf-11" value="+sendMessage(MessageRequest): ResponseEntity&lt;String&gt;" style="text;strokeColor=none;fillColor=none;align=left;verticalAlign=top;spacingLeft=4;spacingRight=4;overflow=hidden;rotatable=0;points=[[0,0.5],[1,0.5]];portConstraint=eastwest;" vertex="1" parent="OA2A4LIZj-C3sTAUX2nf-9">
          <mxGeometry y="52" width="350" height="26" as="geometry" />
        </mxCell>
        <mxCell id="OA2A4LIZj-C3sTAUX2nf-30" style="edgeStyle=orthogonalEdgeStyle;rounded=0;orthogonalLoop=1;jettySize=auto;html=1;exitX=0;exitY=0.25;exitDx=0;exitDy=0;entryX=0.5;entryY=0;entryDx=0;entryDy=0;" edge="1" parent="1" source="OA2A4LIZj-C3sTAUX2nf-12" target="OA2A4LIZj-C3sTAUX2nf-6">
          <mxGeometry relative="1" as="geometry" />
        </mxCell>
        <mxCell id="OA2A4LIZj-C3sTAUX2nf-12" value="LoggingAspect" style="swimlane;fontStyle=1;childLayout=stackLayout;horizontal=1;startSize=26;horizontalStack=0;resizeParent=1;resizeParentMax=0;resizeLast=0;collapsible=1;marginBottom=0;" vertex="1" parent="1">
          <mxGeometry x="630" y="570" width="160" height="52" as="geometry" />
        </mxCell>
        <mxCell id="OA2A4LIZj-C3sTAUX2nf-13" value="+logAround(): Object" style="text;strokeColor=none;fillColor=none;align=left;verticalAlign=top;spacingLeft=4;spacingRight=4;overflow=hidden;rotatable=0;points=[[0,0.5],[1,0.5]];portConstraint=eastwest;" vertex="1" parent="OA2A4LIZj-C3sTAUX2nf-12">
          <mxGeometry y="26" width="160" height="26" as="geometry" />
        </mxCell>
        <mxCell id="OA2A4LIZj-C3sTAUX2nf-32" style="edgeStyle=orthogonalEdgeStyle;rounded=0;orthogonalLoop=1;jettySize=auto;html=1;exitX=0.5;exitY=0;exitDx=0;exitDy=0;entryX=1;entryY=0.5;entryDx=0;entryDy=0;" edge="1" parent="1" source="OA2A4LIZj-C3sTAUX2nf-14" target="OA2A4LIZj-C3sTAUX2nf-7">
          <mxGeometry relative="1" as="geometry" />
        </mxCell>
        <mxCell id="OA2A4LIZj-C3sTAUX2nf-14" value="UserRepository" style="swimlane;fontStyle=1;childLayout=stackLayout;horizontal=1;startSize=26;horizontalStack=0;resizeParent=1;resizeParentMax=0;resizeLast=0;collapsible=1;marginBottom=0;" vertex="1" parent="1">
          <mxGeometry x="530" y="760" width="280" height="78" as="geometry" />
        </mxCell>
        <mxCell id="OA2A4LIZj-C3sTAUX2nf-15" value="-jdbcTemplate: NamedParameterJdbcTemplate" style="text;strokeColor=none;fillColor=none;align=left;verticalAlign=top;spacingLeft=4;spacingRight=4;overflow=hidden;rotatable=0;points=[[0,0.5],[1,0.5]];portConstraint=eastwest;" vertex="1" parent="OA2A4LIZj-C3sTAUX2nf-14">
          <mxGeometry y="26" width="280" height="26" as="geometry" />
        </mxCell>
        <mxCell id="OA2A4LIZj-C3sTAUX2nf-16" value="+findById(Long): User" style="text;strokeColor=none;fillColor=none;align=left;verticalAlign=top;spacingLeft=4;spacingRight=4;overflow=hidden;rotatable=0;points=[[0,0.5],[1,0.5]];portConstraint=eastwest;" vertex="1" parent="OA2A4LIZj-C3sTAUX2nf-14">
          <mxGeometry y="52" width="280" height="26" as="geometry" />
        </mxCell>
        <mxCell id="OA2A4LIZj-C3sTAUX2nf-39" style="edgeStyle=orthogonalEdgeStyle;rounded=0;orthogonalLoop=1;jettySize=auto;html=1;exitX=0.75;exitY=0;exitDx=0;exitDy=0;entryX=1;entryY=0.5;entryDx=0;entryDy=0;" edge="1" parent="1" source="OA2A4LIZj-C3sTAUX2nf-17" target="OA2A4LIZj-C3sTAUX2nf-16">
          <mxGeometry relative="1" as="geometry" />
        </mxCell>
        <mxCell id="OA2A4LIZj-C3sTAUX2nf-17" value="User" style="swimlane;fontStyle=1;childLayout=stackLayout;horizontal=1;startSize=26;horizontalStack=0;resizeParent=1;resizeParentMax=0;resizeLast=0;collapsible=1;marginBottom=0;" vertex="1" parent="1">
          <mxGeometry x="960" y="990" width="160" height="130" as="geometry" />
        </mxCell>
        <mxCell id="OA2A4LIZj-C3sTAUX2nf-18" value="+id: Long" style="text;strokeColor=none;fillColor=none;align=left;verticalAlign=top;spacingLeft=4;spacingRight=4;overflow=hidden;rotatable=0;points=[[0,0.5],[1,0.5]];portConstraint=eastwest;" vertex="1" parent="OA2A4LIZj-C3sTAUX2nf-17">
          <mxGeometry y="26" width="160" height="26" as="geometry" />
        </mxCell>
        <mxCell id="OA2A4LIZj-C3sTAUX2nf-21" value="+lastName: String" style="text;strokeColor=none;fillColor=none;align=left;verticalAlign=top;spacingLeft=4;spacingRight=4;overflow=hidden;rotatable=0;points=[[0,0.5],[1,0.5]];portConstraint=eastwest;" vertex="1" parent="OA2A4LIZj-C3sTAUX2nf-17">
          <mxGeometry y="52" width="160" height="26" as="geometry" />
        </mxCell>
        <mxCell id="OA2A4LIZj-C3sTAUX2nf-20" value="+firstName: String" style="text;strokeColor=none;fillColor=none;align=left;verticalAlign=top;spacingLeft=4;spacingRight=4;overflow=hidden;rotatable=0;points=[[0,0.5],[1,0.5]];portConstraint=eastwest;" vertex="1" parent="OA2A4LIZj-C3sTAUX2nf-17">
          <mxGeometry y="78" width="160" height="26" as="geometry" />
        </mxCell>
        <mxCell id="OA2A4LIZj-C3sTAUX2nf-19" value="+telephone: String" style="text;strokeColor=none;fillColor=none;align=left;verticalAlign=top;spacingLeft=4;spacingRight=4;overflow=hidden;rotatable=0;points=[[0,0.5],[1,0.5]];portConstraint=eastwest;" vertex="1" parent="OA2A4LIZj-C3sTAUX2nf-17">
          <mxGeometry y="104" width="160" height="26" as="geometry" />
        </mxCell>
        <mxCell id="OA2A4LIZj-C3sTAUX2nf-22" value="DbUtils" style="swimlane;fontStyle=1;childLayout=stackLayout;horizontal=1;startSize=26;horizontalStack=0;resizeParent=1;resizeParentMax=0;resizeLast=0;collapsible=1;marginBottom=0;" vertex="1" parent="1">
          <mxGeometry x="720" y="900" width="210" height="52" as="geometry" />
        </mxCell>
        <mxCell id="OA2A4LIZj-C3sTAUX2nf-23" value="+mapUsers(ResultSet): List&lt;User&gt;" style="text;strokeColor=none;fillColor=none;align=left;verticalAlign=top;spacingLeft=4;spacingRight=4;overflow=hidden;rotatable=0;points=[[0,0.5],[1,0.5]];portConstraint=eastwest;" vertex="1" parent="OA2A4LIZj-C3sTAUX2nf-22">
          <mxGeometry y="26" width="210" height="26" as="geometry" />
        </mxCell>
        <mxCell id="OA2A4LIZj-C3sTAUX2nf-24" value="ApiException" style="swimlane;fontStyle=1;childLayout=stackLayout;horizontal=1;startSize=26;horizontalStack=0;resizeParent=1;resizeParentMax=0;resizeLast=0;collapsible=1;marginBottom=0;" vertex="1" parent="1">
          <mxGeometry x="400" y="912" width="180" height="78" as="geometry" />
        </mxCell>
        <mxCell id="OA2A4LIZj-C3sTAUX2nf-25" value="+errorCode: String" style="text;strokeColor=none;fillColor=none;align=left;verticalAlign=top;spacingLeft=4;spacingRight=4;overflow=hidden;rotatable=0;points=[[0,0.5],[1,0.5]];portConstraint=eastwest;" vertex="1" parent="OA2A4LIZj-C3sTAUX2nf-24">
          <mxGeometry y="26" width="180" height="26" as="geometry" />
        </mxCell>
        <mxCell id="OA2A4LIZj-C3sTAUX2nf-26" value="+ApiException(String, String)" style="text;strokeColor=none;fillColor=none;align=left;verticalAlign=top;spacingLeft=4;spacingRight=4;overflow=hidden;rotatable=0;points=[[0,0.5],[1,0.5]];portConstraint=eastwest;" vertex="1" parent="OA2A4LIZj-C3sTAUX2nf-24">
          <mxGeometry y="52" width="180" height="26" as="geometry" />
        </mxCell>
        <mxCell id="OA2A4LIZj-C3sTAUX2nf-35" style="edgeStyle=orthogonalEdgeStyle;rounded=0;orthogonalLoop=1;jettySize=auto;html=1;exitX=0;exitY=0.5;exitDx=0;exitDy=0;entryX=1;entryY=0.5;entryDx=0;entryDy=0;" edge="1" parent="1" source="OA2A4LIZj-C3sTAUX2nf-7" target="OA2A4LIZj-C3sTAUX2nf-9">
          <mxGeometry relative="1" as="geometry">
            <Array as="points">
              <mxPoint x="430" y="650" />
              <mxPoint x="395" y="650" />
              <mxPoint x="395" y="839" />
            </Array>
          </mxGeometry>
        </mxCell>
        <mxCell id="OA2A4LIZj-C3sTAUX2nf-36" style="edgeStyle=orthogonalEdgeStyle;rounded=0;orthogonalLoop=1;jettySize=auto;html=1;exitX=0;exitY=0.5;exitDx=0;exitDy=0;entryX=1;entryY=0.5;entryDx=0;entryDy=0;" edge="1" parent="1" source="OA2A4LIZj-C3sTAUX2nf-5" target="OA2A4LIZj-C3sTAUX2nf-15">
          <mxGeometry relative="1" as="geometry" />
        </mxCell>
        <mxCell id="OA2A4LIZj-C3sTAUX2nf-38" style="edgeStyle=orthogonalEdgeStyle;rounded=0;orthogonalLoop=1;jettySize=auto;html=1;exitX=1;exitY=0.5;exitDx=0;exitDy=0;entryX=0.25;entryY=0;entryDx=0;entryDy=0;" edge="1" parent="1" source="OA2A4LIZj-C3sTAUX2nf-23" target="OA2A4LIZj-C3sTAUX2nf-17">
          <mxGeometry relative="1" as="geometry" />
        </mxCell>
      </root>
    </mxGraphModel>
  </diagram>
</mxfile>
